<svg width="600" height="600" viewBox="0 0 600 600" xmlns="http://www.w3.org/2000/svg">
  <rect width="600" height="600" rx="120" fill="#1A1A1A"/>
  <g transform="translate(40, 16)">
    <path d="M253.782 17.2561C265.438 17.2561 275.91 23.2957 283.005 34.5122C301.248 62.9848 313.917 93.8732 321.18 127.177C321.687 129.421 322.194 131.492 324.221 133.907C327.261 122.001 330.133 110.266 333.342 98.3598C334.525 93.7006 335.707 88.6964 337.903 84.3823C343.308 73.8561 353.781 67.989 364.592 67.989C368.308 67.989 372.024 68.6793 375.571 70.0598C390.774 76.0994 398.544 91.6299 394.321 108.368C384.693 146.677 374.896 184.985 365.099 223.467L500.063 499.392C510.367 522.86 493.813 549.262 468.644 549.607L336.045 550.642C335.876 550.642 335.876 550.642 335.707 550.642C335.031 550.642 334.525 550.642 334.018 550.642C321.349 549.952 310.201 541.669 304.964 529.762L279.964 473.162L280.64 470.919C269.661 482.135 256.485 490.936 241.114 496.976C217.803 506.121 195.337 510.781 173.547 510.781C135.372 510.781 99.7303 496.113 67.4672 464.879C55.643 453.318 45.6769 438.65 38.2446 423.637C25.238 397.235 15.7787 369.281 17.4678 338.91C17.8057 332.007 18.6503 324.76 21.0151 318.203C25.238 306.468 36.0487 299.393 47.7039 299.393C49.2242 299.393 50.7444 299.566 52.4336 299.738C66.4537 301.982 76.4198 312.681 77.4333 327.176L77.7711 326.313C78.109 334.768 79.2914 343.569 81.3184 352.542C90.102 392.231 112.568 421.394 133.007 421.394C134.696 421.394 136.216 421.394 137.737 420.876C159.358 415.872 169.155 377.046 159.527 334.251C150.743 294.562 128.277 265.399 107.838 265.399C106.149 265.399 104.629 265.571 103.109 265.917C95.0006 267.815 83.6832 276.96 79.2914 286.969C75.7441 288.522 71.859 289.557 67.805 289.557C66.1159 289.557 64.2578 289.385 62.3997 289.04C40.6094 284.208 36.3865 256.943 50.4066 238.997C73.886 209.144 104.798 194.994 142.128 194.821C142.297 194.821 142.297 194.821 142.466 194.821C160.54 194.821 177.432 199.998 195.506 207.936C188.412 188.092 179.797 171.008 167.973 156.168C158.682 144.606 148.547 134.425 138.75 123.899C129.122 113.718 125.743 98.7049 130.642 86.2805C136.047 72.8208 148.04 64.1927 162.061 64.1927C162.061 64.1927 162.061 64.1927 162.229 64.1927C171.52 64.1927 179.459 67.6439 186.385 74.0287C215.945 101.293 238.749 133.39 254.289 170.835C255.303 173.251 256.316 175.495 258.512 177.738C258.512 175.667 258.343 173.596 258.343 171.526C255.978 135.46 244.83 102.501 225.573 72.1305C211.891 50.7329 222.702 23.1232 246.519 17.9463C249.053 17.4287 251.418 17.2561 253.782 17.2561Z" fill="#FF6BA8"/>
  </g>
</svg>
